<svg width="32" height="32" viewBox="0 0 32 32" fill="none" xmlns="http://www.w3.org/2000/svg">
<rect width="32" height="32" rx="16" fill="black"/>
<g clip-path="url(#clip0_334_11764)">
<path d="M8.70134 12.1211V15.8321C8.70134 15.8855 8.65738 15.9294 8.60087 15.9294C8.54436 15.9294 8.50668 15.8886 8.5004 15.8384V12.9845C8.5004 12.7522 8.40936 12.5355 8.24924 12.3754C8.08598 12.2121 7.86934 12.1211 7.63701 12.1211H4.21484V20.1396H7.13468V15.9828C7.13468 15.9294 7.17863 15.8855 7.23514 15.8855C7.29166 15.8855 7.32933 15.9263 7.33561 15.9765V20.1396H11.7907V12.1211H8.70134Z" fill="white"/>
<path d="M8.70134 12.1211V15.8321C8.70134 15.8855 8.65738 15.9294 8.60087 15.9294C8.54436 15.9294 8.50668 15.8886 8.5004 15.8384V12.9845C8.5004 12.7522 8.40936 12.5355 8.24924 12.3754C8.08598 12.2121 7.86934 12.1211 7.63701 12.1211H4.21484V20.1396H7.13468V15.9828C7.13468 15.9294 7.17863 15.8855 7.23514 15.8855C7.29166 15.8855 7.32933 15.9263 7.33561 15.9765V20.1396H11.7907V12.1211H8.70134Z" fill="white"/>
<path d="M8.70134 12.1211V15.8321C8.70134 15.8855 8.65738 15.9294 8.60087 15.9294C8.54436 15.9294 8.50668 15.8886 8.5004 15.8384V12.9845C8.5004 12.7522 8.40936 12.5355 8.24924 12.3754C8.08598 12.2121 7.86934 12.1211 7.63701 12.1211H4.21484V20.1396H7.13468V15.9828C7.13468 15.9294 7.17863 15.8855 7.23514 15.8855C7.29166 15.8855 7.32933 15.9263 7.33561 15.9765V20.1396H11.7907V12.1211H8.70134Z" fill="white"/>
<path d="M6.91561 16.4172C7.14623 16.4172 7.33318 16.2302 7.33318 15.9996C7.33318 15.769 7.14623 15.582 6.91561 15.582C6.685 15.582 6.49805 15.769 6.49805 15.9996C6.49805 16.2302 6.685 16.4172 6.91561 16.4172Z" fill="black"/>
<path d="M7.33004 15.9844H6.49805V21.4567H7.33004V15.9844Z" fill="black"/>
<path d="M6.91561 16.4172C7.14623 16.4172 7.33318 16.2302 7.33318 15.9996C7.33318 15.769 7.14623 15.582 6.91561 15.582C6.685 15.582 6.49805 15.769 6.49805 15.9996C6.49805 16.2302 6.685 16.4172 6.91561 16.4172Z" fill="black"/>
<path d="M7.33004 15.9844H6.49805V21.4567H7.33004V15.9844Z" fill="black"/>
<path fill-rule="evenodd" clip-rule="evenodd" d="M22.9595 12.9474L22.9595 16.0676C22.9578 16.0832 22.9568 16.0991 22.9568 16.1151C22.9568 16.3458 23.1438 16.5327 23.3744 16.5327C23.5938 16.5327 23.7737 16.3635 23.7907 16.1485C23.7919 16.1469 23.7925 16.1453 23.7925 16.1437V12.125H27.7578V20.1435H27.7547H25.6396V16.0484H25.6385C25.631 15.8244 25.447 15.6452 25.2212 15.6452C24.9906 15.6452 24.8036 15.8321 24.8036 16.0627C24.8036 16.0825 24.805 16.102 24.8076 16.121V20.1435H21.9017V16.0936C21.9025 16.0834 21.9029 16.0731 21.9029 16.0627C21.9029 15.8321 21.7159 15.6452 21.4853 15.6452C21.2547 15.6452 21.0677 15.8321 21.0677 16.0627C21.0677 16.0767 21.0684 16.0904 21.0697 16.104V20.1435H18.7754V12.125H22.0908C22.5574 12.125 22.938 12.4893 22.9595 12.9474Z" fill="white"/>
<path fill-rule="evenodd" clip-rule="evenodd" d="M9.33468 16.1688V12.125H8.50268V16.1463C8.50091 16.1593 8.5 16.1717 8.5 16.1834C8.5 16.3511 8.68524 16.4847 8.91757 16.4847C9.1499 16.4847 9.33513 16.3488 9.33513 16.1834C9.33513 16.1787 9.33498 16.1738 9.33468 16.1688Z" fill="black"/>
<path fill-rule="evenodd" clip-rule="evenodd" d="M6.5 19.1673V20.2071H7.332V15.9511C7.33407 15.9379 7.33513 15.9244 7.33513 15.9106C7.33513 15.7292 7.14818 15.582 6.91757 15.582C6.7196 15.582 6.55381 15.6904 6.51083 15.8359C6.50561 15.8545 6.50237 15.8737 6.50132 15.8933H6.50095V15.9074V19.1673H6.5Z" fill="black"/>
<path d="M18.1644 15.6707V12.1289H13.3797C12.871 12.1289 12.4629 12.5371 12.4629 13.0425V19.237C12.4629 19.7393 12.8742 20.1506 13.3797 20.1506H18.1644V16.5027H14.8176V16.5025C14.5928 16.4958 14.4126 16.3115 14.4126 16.0851C14.4126 15.8545 14.5995 15.6675 14.8302 15.6675C14.8477 15.6675 14.865 15.6686 14.8819 15.6707H18.1644Z" fill="white"/>
</g>
<defs>
<clipPath id="clip0_334_11764">
<rect width="23.5408" height="11.0734" fill="white" transform="translate(4.21484 10.4453)"/>
</clipPath>
</defs>
</svg>
