<svg width="630" height="273" viewBox="0 0 630 273" fill="none" xmlns="http://www.w3.org/2000/svg">
<path d="M279.031 132.155C279.031 129.678 281.064 127.628 283.558 127.594H283.882H416.738V0H255.631C232.23 0 213.27 18.8402 213.27 42.1044V230.421C213.27 253.668 232.23 272.526 255.631 272.526H416.738V136.733H283.438L283.285 136.698C280.91 136.528 279.014 134.546 279.014 132.155" fill="black"/>
<path d="M122.897 0V132.65C122.862 135.127 120.813 137.16 118.319 137.16C115.825 137.16 113.912 135.281 113.741 132.924L113.707 132.77V39.8327C113.707 29.1742 109.573 19.1648 102.075 11.6663C94.5765 4.15066 84.55 0 73.8744 0H-0.000488281V272.526H80.553V111.419C80.5872 108.942 82.6369 106.909 85.1307 106.909C87.6245 106.909 89.5376 108.788 89.7084 111.145L89.7426 111.299V272.509H203.433V0H122.897V0Z" fill="black"/>
<path d="M533.723 0V132.787V132.821C533.621 135.195 531.639 137.125 529.231 137.177H529.026C526.618 137.125 524.636 135.195 524.551 132.821V132.77V39.8497C524.534 17.8666 506.565 0 484.462 0H426.558V272.56H490.987V111.419C491.021 108.942 493.071 106.909 495.564 106.909C498.058 106.909 499.971 108.788 500.142 111.145L500.176 111.299V272.543H558.012V111.419C558.046 108.942 560.096 106.909 562.59 106.909C565.084 106.909 566.997 108.788 567.151 111.145L567.185 111.299V272.543H629.974V0H533.723V0Z" fill="black"/>
</svg>
