<svg width="32" height="32" viewBox="0 0 32 32" fill="none" xmlns="http://www.w3.org/2000/svg">
<g clip-path="url(#clip0_344_4877)">
<rect width="32" height="32" fill="white"/>
<g clip-path="url(#clip1_344_4877)">
<path d="M19.0147 2.20312V15.4497C19.0147 15.6402 18.8578 15.7971 18.656 15.7971C18.4543 15.7971 18.3198 15.6514 18.2974 15.4721V5.28502C18.2974 4.45571 17.9724 3.68243 17.4009 3.11088C16.8181 2.52812 16.0448 2.20312 15.2155 2.20312H3V30.8255H13.4224V15.9876C13.4224 15.7971 13.5793 15.6402 13.781 15.6402C13.9828 15.6402 14.1172 15.7859 14.1397 15.9652V30.8255H30.0422V2.20312H19.0147Z" fill="#161616"/>
<path d="M19.0147 2.20312V15.4497C19.0147 15.6402 18.8578 15.7971 18.656 15.7971C18.4543 15.7971 18.3198 15.6514 18.2974 15.4721V5.28502C18.2974 4.45571 17.9724 3.68243 17.4009 3.11088C16.8181 2.52812 16.0448 2.20312 15.2155 2.20312H3V30.8255H13.4224V15.9876C13.4224 15.7971 13.5793 15.6402 13.781 15.6402C13.9828 15.6402 14.1172 15.7859 14.1397 15.9652V30.8255H30.0422V2.20312H19.0147Z" fill="#161616"/>
<path d="M19.0147 2.20312V15.4497C19.0147 15.6402 18.8578 15.7971 18.656 15.7971C18.4543 15.7971 18.3198 15.6514 18.2974 15.4721V5.28502C18.2974 4.45571 17.9724 3.68243 17.4009 3.11088C16.8181 2.52812 16.0448 2.20312 15.2155 2.20312H3V30.8255H13.4224V15.9876C13.4224 15.7971 13.5793 15.6402 13.781 15.6402C13.9828 15.6402 14.1172 15.7859 14.1397 15.9652V30.8255H30.0422V2.20312H19.0147Z" fill="#161616"/>
<path d="M12.637 17.5357C13.4602 17.5357 14.1275 16.8684 14.1275 16.0452C14.1275 15.222 13.4602 14.5547 12.637 14.5547C11.8138 14.5547 11.1465 15.222 11.1465 16.0452C11.1465 16.8684 11.8138 17.5357 12.637 17.5357Z" fill="white"/>
<path d="M14.1163 15.9883H11.1465V35.5219H14.1163V15.9883Z" fill="white"/>
<path d="M12.637 17.5357C13.4602 17.5357 14.1275 16.8684 14.1275 16.0452C14.1275 15.222 13.4602 14.5547 12.637 14.5547C11.8138 14.5547 11.1465 15.222 11.1465 16.0452C11.1465 16.8684 11.8138 17.5357 12.637 17.5357Z" fill="white"/>
<path d="M14.1163 15.9883H11.1465V35.5219H14.1163V15.9883Z" fill="white"/>
<path fill-rule="evenodd" clip-rule="evenodd" d="M21.272 16.6182V2.21484H18.3021V16.5866C18.2974 16.6264 18.2949 16.6646 18.2949 16.701C18.2949 17.2993 18.9561 17.7764 19.7854 17.7764C20.6147 17.7764 21.276 17.2913 21.276 16.701C21.276 16.6744 21.2746 16.6467 21.272 16.6182Z" fill="white"/>
<path fill-rule="evenodd" clip-rule="evenodd" d="M11.1523 27.3514V31.0708H14.1222V15.8683C14.1296 15.821 14.1334 15.7727 14.1334 15.7238C14.1334 15.0759 13.4661 14.5508 12.6429 14.5508C12.2165 14.5508 11.8319 14.6917 11.5603 14.9175C11.3288 15.114 11.1818 15.373 11.1648 15.6588H11.1631V15.7147V27.3514H11.1523Z" fill="white"/>
</g>
</g>
<defs>
<clipPath id="clip0_344_4877">
<rect width="32" height="32" fill="white"/>
</clipPath>
<clipPath id="clip1_344_4877">
<rect width="84.0293" height="39.5267" fill="white" transform="translate(3 -3.78125)"/>
</clipPath>
</defs>
</svg>
