<svg width="32" height="32" viewBox="0 0 32 32" fill="none" xmlns="http://www.w3.org/2000/svg">
<rect width="32" height="32" rx="16" fill="black"/>
<g clip-path="url(#clip0_334_12116)">
<path d="M17.1637 9V15.7526C17.1637 15.8497 17.0837 15.9297 16.9809 15.9297C16.878 15.9297 16.8095 15.8554 16.7981 15.764V10.571C16.7981 10.1483 16.6324 9.7541 16.341 9.46274C16.044 9.16567 15.6498 9 15.227 9H9V23.5907H14.313V16.0268C14.313 15.9297 14.3929 15.8497 14.4958 15.8497C14.5986 15.8497 14.6672 15.924 14.6786 16.0154V23.5907H22.7852V9H17.1637Z" fill="white"/>
<path d="M17.1637 9V15.7526C17.1637 15.8497 17.0837 15.9297 16.9809 15.9297C16.878 15.9297 16.8095 15.8554 16.7981 15.764V10.571C16.7981 10.1483 16.6324 9.7541 16.341 9.46274C16.044 9.16567 15.6498 9 15.227 9H9V23.5907H14.313V16.0268C14.313 15.9297 14.3929 15.8497 14.4958 15.8497C14.5986 15.8497 14.6672 15.924 14.6786 16.0154V23.5907H22.7852V9H17.1637Z" fill="white"/>
<path d="M17.1637 9V15.7526C17.1637 15.8497 17.0837 15.9297 16.9809 15.9297C16.878 15.9297 16.8095 15.8554 16.7981 15.764V10.571C16.7981 10.1483 16.6324 9.7541 16.341 9.46274C16.044 9.16567 15.6498 9 15.227 9H9V23.5907H14.313V16.0268C14.313 15.9297 14.3929 15.8497 14.4958 15.8497C14.5986 15.8497 14.6672 15.924 14.6786 16.0154V23.5907H22.7852V9H17.1637Z" fill="white"/>
<path d="M13.9141 16.8165C14.3337 16.8165 14.6739 16.4763 14.6739 16.0567C14.6739 15.6371 14.3337 15.2969 13.9141 15.2969C13.4945 15.2969 13.1543 15.6371 13.1543 16.0567C13.1543 16.4763 13.4945 16.8165 13.9141 16.8165Z" fill="black"/>
<path d="M14.6682 16.0312H13.1543V25.9888H14.6682V16.0312Z" fill="black"/>
<path d="M13.9141 16.8165C14.3337 16.8165 14.6739 16.4763 14.6739 16.0567C14.6739 15.6371 14.3337 15.2969 13.9141 15.2969C13.4945 15.2969 13.1543 15.6371 13.1543 16.0567C13.1543 16.4763 13.4945 16.8165 13.9141 16.8165Z" fill="black"/>
<path d="M14.6682 16.0312H13.1543V25.9888H14.6682V16.0312Z" fill="black"/>
<path fill-rule="evenodd" clip-rule="evenodd" d="M18.3145 16.3474V9.00391H16.8005V16.3316C16.7981 16.3518 16.7969 16.3713 16.7969 16.3898C16.7969 16.6948 17.1339 16.938 17.5567 16.938C17.9794 16.938 18.3165 16.6907 18.3165 16.3898C18.3165 16.3762 18.3158 16.362 18.3145 16.3474Z" fill="black"/>
<path fill-rule="evenodd" clip-rule="evenodd" d="M13.1582 21.8222V23.719H14.6721V15.9724C14.6759 15.9483 14.6778 15.9237 14.6778 15.8987C14.6778 15.5685 14.3376 15.3008 13.918 15.3008C13.5506 15.3008 13.2441 15.506 13.1735 15.7787C13.1669 15.8063 13.1626 15.8345 13.161 15.8633H13.1602V15.8909V21.8222H13.1582Z" fill="black"/>
</g>
<defs>
<clipPath id="clip0_334_12116">
<rect width="13.7852" height="14.5907" fill="white" transform="translate(9 9)"/>
</clipPath>
</defs>
</svg>
