<svg width="33" height="32" viewBox="0 0 33 32" fill="none" xmlns="http://www.w3.org/2000/svg">
<rect width="32" height="32" transform="translate(1)" fill="white"/>
<g clip-path="url(#clip0_344_4846)">
<path d="M7.07503 10.7305V15.7797C7.07503 15.8523 7.01522 15.9121 6.93833 15.9121C6.86144 15.9121 6.81018 15.8566 6.80164 15.7882V11.9052C6.80164 11.5891 6.67776 11.2943 6.4599 11.0765C6.23777 10.8543 5.94302 10.7305 5.62691 10.7305H0.970703V21.6405H4.94343V15.9847C4.94343 15.9121 5.00323 15.8523 5.08012 15.8523C5.15701 15.8523 5.20828 15.9078 5.21682 15.9762V21.6405H11.2784V10.7305H7.07503Z" fill="#161616"/>
<path d="M7.07503 10.7305V15.7797C7.07503 15.8523 7.01522 15.9121 6.93833 15.9121C6.86144 15.9121 6.81018 15.8566 6.80164 15.7882V11.9052C6.80164 11.5891 6.67776 11.2943 6.4599 11.0765C6.23777 10.8543 5.94302 10.7305 5.62691 10.7305H0.970703V21.6405H4.94343V15.9847C4.94343 15.9121 5.00323 15.8523 5.08012 15.8523C5.15701 15.8523 5.20828 15.9078 5.21682 15.9762V21.6405H11.2784V10.7305H7.07503Z" fill="#161616"/>
<path d="M7.07503 10.7305V15.7797C7.07503 15.8523 7.01522 15.9121 6.93833 15.9121C6.86144 15.9121 6.81018 15.8566 6.80164 15.7882V11.9052C6.80164 11.5891 6.67776 11.2943 6.4599 11.0765C6.23777 10.8543 5.94302 10.7305 5.62691 10.7305H0.970703V21.6405H4.94343V15.9847C4.94343 15.9121 5.00323 15.8523 5.08012 15.8523C5.15701 15.8523 5.20828 15.9078 5.21682 15.9762V21.6405H11.2784V10.7305H7.07503Z" fill="#161616"/>
<path d="M4.64431 16.5738C4.95809 16.5738 5.21246 16.3194 5.21246 16.0056C5.21246 15.6919 4.95809 15.4375 4.64431 15.4375C4.33054 15.4375 4.07617 15.6919 4.07617 16.0056C4.07617 16.3194 4.33054 16.5738 4.64431 16.5738Z" fill="white"/>
<path d="M5.20818 15.9844H4.07617V23.43H5.20818V15.9844Z" fill="white"/>
<path d="M4.64431 16.5738C4.95809 16.5738 5.21246 16.3194 5.21246 16.0056C5.21246 15.6919 4.95809 15.4375 4.64431 15.4375C4.33054 15.4375 4.07617 15.6919 4.07617 16.0056C4.07617 16.3194 4.33054 16.5738 4.64431 16.5738Z" fill="white"/>
<path d="M5.20818 15.9844H4.07617V23.43H5.20818V15.9844Z" fill="white"/>
<path fill-rule="evenodd" clip-rule="evenodd" d="M26.4735 11.8403V16.1098C26.4717 16.1282 26.4708 16.1468 26.4708 16.1656C26.4708 16.4794 26.7252 16.7337 27.0389 16.7337C27.3384 16.7337 27.5838 16.502 27.6055 16.2081C27.6068 16.2061 27.6075 16.2042 27.6075 16.2022V10.7344H33.0027V21.6444H32.9984H30.122V16.0705H30.118C30.1071 15.7663 29.857 15.523 29.5502 15.523C29.2364 15.523 28.9821 15.7774 28.9821 16.0912C28.9821 16.1237 28.9848 16.1556 28.99 16.1866V21.6444H25.0357V16.1344C25.0368 16.1201 25.0373 16.1057 25.0373 16.0912C25.0373 15.7774 24.783 15.523 24.4692 15.523C24.1554 15.523 23.9011 15.7774 23.9011 16.0912C23.9011 16.1099 23.902 16.1283 23.9037 16.1465V21.6444H20.7812V10.7344H25.2922C25.9225 10.7344 26.4376 11.2231 26.4735 11.8403Z" fill="#161616"/>
<path fill-rule="evenodd" clip-rule="evenodd" d="M7.9355 16.2237V10.7344H6.80349V16.2126C6.8017 16.2276 6.80078 16.242 6.80078 16.2558C6.80078 16.4839 7.05281 16.6657 7.36892 16.6657C7.68503 16.6657 7.93707 16.4808 7.93707 16.2558C7.93707 16.2455 7.93654 16.2348 7.9355 16.2237Z" fill="white"/>
<path fill-rule="evenodd" clip-rule="evenodd" d="M4.07812 20.3147V21.7328H5.21014V15.9397C5.21296 15.9217 5.21441 15.9033 5.21441 15.8846C5.21441 15.6377 4.96004 15.4375 4.64627 15.4375C4.41451 15.4375 4.21516 15.5467 4.12678 15.7033C4.10044 15.7513 4.08447 15.8036 4.0811 15.8585H4.08043V15.8805V20.3147H4.07812Z" fill="white"/>
<path d="M19.9508 15.5572V10.7383H13.4407C12.7487 10.7383 12.1934 11.2936 12.1934 11.9814V20.4095C12.1934 21.093 12.753 21.6526 13.4407 21.6526H19.9508V16.6892H15.3972V16.6889C15.0913 16.6799 14.8461 16.4291 14.8461 16.121C14.8461 15.8073 15.1005 15.5529 15.4143 15.5529C15.4381 15.5529 15.4616 15.5544 15.4847 15.5572H19.9508Z" fill="#161616"/>
</g>
<defs>
<clipPath id="clip0_344_4846">
<rect width="32.0296" height="15.0665" fill="white" transform="translate(0.970703 8.44922)"/>
</clipPath>
</defs>
</svg>
